HIERARCHY
ROOT ui
{
	 OFFSET 0 0 0
	 CHANNELS 3 XPosition YPosition Z Position
	 EndSite
	 {
	 OFFSET 0 -1 0
	 }
}
ROOT li
{
	 OFFSET 0 0 0
	 CHANNELS 3 XPosition YPosition Z Position
	 EndSite
	 {
	 OFFSET 0 -1 0
	 }
}
ROOT ul
{
	 OFFSET 0 0 0
	 CHANNELS 3 XPosition YPosition Z Position
	 EndSite
	 {
	 OFFSET 0 -1 0
	 }
}
ROOT ll
{
	 OFFSET 0 0 0
	 CHANNELS 3 XPosition YPosition Z Position
	 EndSite
	 {
	 OFFSET 0 -1 0
	 }
}
ROOT tt
{
	 OFFSET 0 0 0
	 CHANNELS 3 XPosition YPosition Z Position
	 EndSite
	 {
	 OFFSET 0 -1 0
	 }
}
ROOT tb
{
	 OFFSET 0 0 0
	 CHANNELS 3 XPosition YPosition Z Position
	 EndSite
	 {
	 OFFSET 0 -1 0
	 }
}
ROOT td
{
	 OFFSET 0 0 0
	 CHANNELS 3 XPosition YPosition Z Position
	 EndSite
	 {
	 OFFSET 0 -1 0
	 }
}
ROOT v
{
	 OFFSET 0 0 0
	 CHANNELS 3 XPosition YPosition Z Position
	 EndSite
	 {
	 OFFSET 0 -1 0
	 }
}
ROOT bn
{
	 OFFSET 0 0 0
	 CHANNELS 3 XPosition YPosition Z Position
	 EndSite
	 {
	 OFFSET 0 -1 0
	 }
}
MOTION
Frames: 32
Frame Time: 0.002
0.027716447830200195	0.0013367849588394164	0		0.5027176208496094	-2.30038671875	0		-1.146789306640625	0.16975640869140626	0		-0.5428072509765625	-2.581042724609375	0		1.71867041015625	-0.270185791015625	0		3.27044873046875	-0.296498046875	0		4.514251953125	-0.2549774627685547	0		5.7895263671875	0.31225616455078126	0		-0.19789505004882812	5.96460302734375	0		
0.026632755279541016	0.001717797040939331	0		0.5533950805664063	-2.305854736328125	0		-1.07287109375	0.16903594970703126	0		-0.5440634155273437	-2.58062353515625	0		1.7073653564453124	-0.2827587890625	0		3.288248291015625	-0.3026317749023438	0		4.5149306640625	-0.26892584228515626	0		5.7928935546875	0.29132879638671877	0		-0.08140615081787109	5.97515673828125	0		
-0.05151004028320313	0.004356077194213867	0		0.515211669921875	-2.29588671875	0		-1.0880731201171876	0.1667563934326172	0		-0.5124960327148438	-2.5856826171875	0		1.73818896484375	-0.28196096801757814	0		3.286900634765625	-0.31243789672851563	0		4.515505859375	-0.28384909057617186	0		5.788556640625	0.3018729248046875	0		-0.2145019073486328	5.9546748046875	0		
0.0211575813293457	-3.492690026760101E-4	0		0.5465565795898437	-2.3099814453125	0		-1.08119482421875	0.17517356872558593	0		-0.5499256591796875	-2.5836083984375	0		1.7297822265625	-0.289511474609375	0		3.2696357421875	-0.3109605712890625	0		4.51114599609375	-0.2886676940917969	0		5.7961435546875	0.29123300170898436	0		-0.21433990478515624	5.9541396484375	0		
-0.05817264175415039	0.002400609016418457	0		0.5211055908203125	-2.304134033203125	0		-1.0715706787109376	0.17358885192871093	0		-0.5494489135742188	-2.581091064453125	0		1.7284039306640624	-0.28913723754882814	0		3.27087255859375	-0.3347496337890625	0		4.49440283203125	-0.3112652893066406	0		5.80367138671875	0.2823585815429687	0		-0.24834529113769532	5.94819091796875	0		
0.02139639663696289	0.0036558279991149903	0		0.5495120239257812	-2.301107666015625	0		-1.0689459228515625	0.1781597137451172	0		-0.578928955078125	-2.5690498046875	0		1.7389583740234376	-0.286919189453125	0		3.307371826171875	-0.3360718994140625	0		4.5138740234375	-0.3144129638671875	0		5.80506591796875	0.32739321899414064	0		-0.20007029724121095	5.96397265625	0		
-0.05712275314331055	0.006485910892486573	0		0.5477747802734375	-2.3005625	0		-1.08231396484375	0.18903187561035156	0		-0.5107781372070312	-2.5745380859375	0		1.722294189453125	-0.2922304382324219	0		3.274818603515625	-0.33425680541992187	0		4.50235205078125	-0.31103704833984375	0		5.80949169921875	0.30140875244140625	0		-0.21627842712402343	5.9548232421875	0		
0.01517356777191162	0.001923470973968506	0		0.5418674926757813	-2.304912841796875	0		-1.083927490234375	0.1897556915283203	0		-0.5455430908203125	-2.5683291015625	0		1.717574951171875	-0.2956977844238281	0		3.2848994140625	-0.3500986022949219	0		4.51035400390625	-0.33195095825195314	0		5.80534375	0.2827227783203125	0		-0.21739794921875	5.95547314453125	0		
-0.06449987030029297	0.004861097812652588	0		0.539966064453125	-2.30429150390625	0		-1.095593505859375	0.19168157958984375	0		-0.547467529296875	-2.567613037109375	0		1.715848876953125	-0.29517919921875	0		3.283005615234375	-0.3597154846191406	0		4.49939794921875	-0.3455276794433594	0		5.807759765625	0.2932393493652344	0		-0.2327556610107422	5.94539013671875	0		
0.021573358535766602	-0.005870571136474609	0		0.5120482788085937	-2.3012109375	0		-1.0932633056640626	0.19641429138183594	0		-0.580325927734375	-2.559355712890625	0		1.7140714111328126	-0.2946274108886719	0		3.281222412109375	-0.3593013916015625	0		4.51446630859375	-0.35449761962890625	0		5.81153125	0.29856185913085936	0		-0.21882325744628905	5.95586572265625	0		
0.009942998886108398	0.004023610115051269	0		0.5401136474609375	-2.298017333984375	0		-1.08184619140625	0.2080266571044922	0		-0.546349609375	-2.5601650390625	0		1.712266357421875	-0.29404412841796873	0		3.27923046875	-0.3698531494140625	0		4.50752490234375	-0.362074951171875	0		5.81687451171875	0.32810153198242187	0		-0.08773935699462891	5.97644140625	0		
0.011210058212280273	0.007731465816497802	0		0.5121717529296875	-2.29487451171875	0		-1.0836109619140626	0.20887771606445313	0		-0.5463177490234375	-2.55739306640625	0		1.710458740234375	-0.2934314270019531	0		3.30921337890625	-0.381902099609375	0		4.51846142578125	-0.376913818359375	0		5.81143701171875	0.3460234375	0		-0.08802872467041016	5.97619140625	0		
0.016246856689453124	-0.003603874921798706	0		0.534131591796875	-2.29953515625	0		-1.0934888916015626	0.20188214111328126	0		-0.5513593139648437	-2.560516845703125	0		1.698472900390625	-0.304625	0		3.307235595703125	-0.392394775390625	0		4.5166669921875	-0.37650836181640623	0		5.828361328125	0.2938970031738281	0		-0.23682469177246093	5.94642822265625	0		
6.240829825401306E-4	0.003424655914306641	0		0.4953769226074219	-2.289164306640625	0		-1.100246826171875	0.19985105895996094	0		-0.5553237915039062	-2.56164208984375	0		1.72160302734375	-0.3113822021484375	0		3.305479248046875	-0.3918649291992187	0		4.51356103515625	-0.39705642700195315	0		5.82480712890625	0.2685998840332031	0		-0.23806962585449218	5.947244140625	0		
0.012852185249328614	-0.00200223708152771	0		0.5303714599609375	-2.298015869140625	0		-1.0887176513671875	0.21152496337890625	0		-0.5571942749023437	-2.560791015625	0		1.7147755126953126	-0.3186248474121094	0		3.290377685546875	-0.4150953063964844	0		4.50672705078125	-0.40451821899414064	0		5.82863818359375	0.2741896667480469	0		-0.22310661315917968	5.95780029296875	0		
0.01921733283996582	-0.003325474977493286	0		0.5087683715820313	-2.286907958984375	0		-1.0862344970703126	0.2163521270751953	0		-0.5538883666992187	-2.554021484375	0		1.7251834716796874	-0.31614556884765627	0		3.335093994140625	-0.3943120422363281	0		4.508197265625	-0.39810006713867185	0		5.8341259765625	0.305698974609375	0		-0.22230418395996093	5.95559619140625	0		
0.012783740043640137	0.002569011926651001	0		0.548093505859375	-2.285827880859375	0		-1.0926689453125	0.22132754516601563	0		-0.55762744140625	-2.555134765625	0		1.7236416015625	-0.3154597778320313	0		3.308431396484375	-0.4003193969726562	0		4.51454638671875	-0.4037523193359375	0		5.837388671875	0.3165661926269531	0		-0.0929827880859375	5.97921826171875	0		
0.008303485870361327	4.2572098970413205E-4	0		0.5185086669921875	-2.284583740234375	0		-1.0940833740234375	0.22220973205566405	0		-0.57519873046875	-2.55201806640625	0		1.7070899658203125	-0.320517578125	0		3.31281982421875	-0.4088442687988281	0		4.50898681640625	-0.40919146728515626	0		5.82552197265625	0.29694003295898436	0		-0.22538578796386718	5.9582626953125	0		
0.008813250541687011	-0.007812489986419677	0		0.5497953491210937	-2.297384033203125	0		-1.095405029296875	0.2230768280029297	0		-0.5678748779296875	-2.561337158203125	0		1.7057325439453126	-0.31983462524414064	0		3.32416455078125	-0.42548638916015624	0		4.5103671875	-0.42374176025390625	0		5.83376220703125	0.28688888549804686	0		-0.22633038330078126	5.95907275390625	0		
0.0026585919857025145	-0.0019486780166625976	0		0.4985407409667969	-2.28878271484375	0		-1.0866505126953125	0.22275238037109374	0		-0.5692730102539062	-2.56052294921875	0		1.7152479248046875	-0.33234674072265624	0		3.32598291015625	-0.4199635925292969	0		4.5180478515625	-0.42639358520507814	0		5.8379013671875	0.29259625244140625	0		-0.22720443725585937	5.9598662109375	0		
0.004582246780395508	0.0027585549354553224	0		0.5232282104492187	-2.290498046875	0		-1.085559326171875	0.23653721618652343	0		-0.6034718627929687	-2.55416455078125	0		1.71715283203125	-0.327736572265625	0		3.318781005859375	-0.42128912353515624	0		4.5227236328125	-0.434991943359375	0		5.84076953125	0.3104845886230469	0		-0.09465258026123047	5.9803486328125	0		
0.008445877075195313	-0.001591001033782959	0		0.5220612182617187	-2.289788818359375	0		-1.0865966796875	0.2373290557861328	0		-0.5368004760742188	-2.56256884765625	0		1.7130179443359375	-0.3310361633300781	0		3.33450048828125	-0.43301455688476564	0		4.5216513671875	-0.4344877624511719	0		5.84437060546875	0.3214374389648437	0		-0.11058285522460938	5.970349609375	0		
-0.004543694972991943	-0.0026742451190948486	0		0.5101050415039062	-2.2829140625	0		-1.0816298828125	0.2329851531982422	0		-0.5877459716796875	-2.553971435546875	0		1.7079775390625	-0.33433544921875	0		3.356503173828125	-0.43385540771484377	0		4.5224326171875	-0.44801791381835937	0		5.84851708984375	0.29950396728515627	0		-0.2436442108154297	5.95035009765625	0		
0.003553205966949463	-0.004150393009185791	0		0.515953857421875	-2.293375	0		-1.08839990234375	0.23881156921386718	0		-0.5558080444335938	-2.55883935546875	0		1.704028076171875	-0.3376727294921875	0		3.339638427734375	-0.43203488159179687	0		4.52154736328125	-0.44752178955078126	0		5.8570927734375	0.28949932861328126	0		-0.24523527526855468	5.95305615234375	0		
5.815849900245667E-4	-0.014467148780822755	0		0.49118243408203127	-2.287330322265625	0		-1.07820849609375	0.23730633544921875	0		-0.6157225952148437	-2.560147705078125	0		1.7121993408203124	-0.3392420654296875	0		3.35563134765625	-0.443799560546875	0		4.52659375	-0.4561376953125	0		5.857884765625	0.27981976318359375	0		-0.2286689453125	5.96141552734375	0		
0.008194746017456055	0.004004576206207275	0		0.5224801635742188	-2.283288818359375	0		-1.0666927490234375	0.2497417755126953	0		-0.577486328125	-2.559194091796875	0		1.7263319091796876	-0.3479394226074219	0		3.376142578125	-0.43065399169921875	0		4.5220908203125	-0.44359219360351565	0		5.86542724609375	0.30792034912109373	0		-0.09584306335449219	5.98071923828125	0		
0.004522449970245361	0.0016378400325775147	0		0.5177348022460937	-2.286650390625	0		-1.072219482421875	0.2554348602294922	0		-0.5930798950195313	-2.5533388671875	0		1.7216337890625	-0.35133047485351565	0		3.355427490234375	-0.43480633544921876	0		4.523494140625	-0.44115682983398435	0		5.86613623046875	0.2705618591308594	0		-0.1124896469116211	5.97158251953125	0		
9.04558002948761E-4	-0.001760517954826355	0		0.5150911254882813	-2.289075927734375	0		-1.0819013671875	0.2481620330810547	0		-0.5658726806640625	-2.564265380859375	0		1.71800927734375	-0.35476113891601563	0		3.35292333984375	-0.43128631591796873	0		4.52469287109375	-0.4547259521484375	0		5.86157666015625	0.28706784057617185	0		-0.2594791564941406	5.9416845703125	0		
-0.00854250431060791	9.139770269393921E-4	0		0.5057349243164062	-2.27940966796875	0		-1.0732430419921875	0.2565362548828125	0		-0.6142267456054687	-2.553903564453125	0		1.71138232421875	-0.3621610107421875	0		3.35243408203125	-0.4308144836425781	0		4.524203125	-0.45427020263671875	0		5.8649208984375	0.3049703369140625	0		-0.259881103515625	5.9422060546875	0		
-0.007107032775878906	-0.006632079124450683	0		0.5120972900390625	-2.290047119140625	0		-1.073665283203125	0.25703323364257813	0		-0.6058495483398437	-2.563566162109375	0		1.7140240478515625	-0.35774139404296873	0		3.35921435546875	-0.41848028564453127	0		4.51998486328125	-0.441754150390625	0		5.8800205078125	0.265276123046875	0		-0.24606373596191405	5.95344970703125	0		
0.0026949059963226316	0.0036504619121551516	0		0.4898438720703125	-2.282206787109375	0		-1.064072021484375	0.25532127380371095	0		-0.6041949462890625	-2.561140625	0		1.7195284423828125	-0.36439230346679685	0		3.358841552734375	-0.41803314208984377	0		4.54743310546875	-0.45179852294921874	0		5.87144677734375	0.3009917602539062	0		-0.11405029296875	5.97360009765625	0		
-0.005608565807342529	0.005221425056457519	0		0.5393973388671875	-2.289646484375	0		-1.070306640625	0.2608541259765625	0		-0.5844965209960937	-2.560060302734375	0		1.715137939453125	-0.36788632202148436	0		3.362607177734375	-0.412664306640625	0		4.53027197265625	-0.44206072998046875	0		5.882076171875	0.32379595947265627	0		-0.11438676452636719	5.97403125	0		
